PathFileType	4	(X/Y/Z)	/Users/itak/Documents/Research/Walk-IL/dataset/trc/00201_00008.trc
DataRate	CameraRate	NumFrames	NumMarkers	Units	OrigDataRate	OrigDataStartFrame	OrigNumFrames
100.000000	100.000000	4	54	mm	100.000000	212	567
Frame#	Time	RPSI			LPSI			L3			STRN			T10			C7			CLAV			RBAK			LBAK			LSHO			LUPA			LAEL			LAOL			LWTS			LWPS			LFRA			LIFD			LHPS			LHTS			RSHO			RUPA			RAEL			RAOL			RWTS			RWPS			RFRA			RIFD			RHTS			RHPS			RBHD			LFHD			RFHD			LBHD			LHIP			RASI			LASI			LKNE			LTHI			LANK			LTIP			LTOE			LMT1			LMT5			LHEE			RKNE			RTHI			RANK			RTIP			RTOE			RMT1			RMT5			RHEE			RHIP			*53			
		X1	Y1	Z1	X2	Y2	Z2	X3	Y3	Z3	X4	Y4	Z4	X5	Y5	Z5	X6	Y6	Z6	X7	Y7	Z7	X8	Y8	Z8	X9	Y9	Z9	X10	Y10	Z10	X11	Y11	Z11	X12	Y12	Z12	X13	Y13	Z13	X14	Y14	Z14	X15	Y15	Z15	X16	Y16	Z16	X17	Y17	Z17	X18	Y18	Z18	X19	Y19	Z19	X20	Y20	Z20	X21	Y21	Z21	X22	Y22	Z22	X23	Y23	Z23	X24	Y24	Z24	X25	Y25	Z25	X26	Y26	Z26	X27	Y27	Z27	X28	Y28	Z28	X29	Y29	Z29	X30	Y30	Z30	X31	Y31	Z31	X32	Y32	Z32	X33	Y33	Z33	X34	Y34	Z34	X35	Y35	Z35	X36	Y36	Z36	X37	Y37	Z37	X38	Y38	Z38	X39	Y39	Z39	X40	Y40	Z40	X41	Y41	Z41	X42	Y42	Z42	X43	Y43	Z43	X44	Y44	Z44	X45	Y45	Z45	X46	Y46	Z46	X47	Y47	Z47	X48	Y48	Z48	X49	Y49	Z49	X50	Y50	Z50	X51	Y51	Z51	X52	Y52	Z52	X53	Y53	Z53	X54	Y54	Z54	

213	2.12	-1132.619262695312	1044.615966796875	-470.97314453125	-1125.683715820312	1047.078002929688	-595.5950927734375	-1127.176635742188	1084.161743164062	-533.2879028320312	-854.7432861328125	1280.693237304688	-511.9728393554688	-1151.861328125	1240.821533203125	-550.5868530273438	-1072.191650390625	1507.219116210938	-551.4442138671875	-877.4181518554688	1395.317138671875	-521.0345458984375	-1160.251220703125	1333.072387695312	-455.37646484375	-1064.866088867188	1485.73876953125	-652.7777099609375	-976.6121215820312	1470.637817382812	-719.2723999023438	-1005.201599121094	1343.109375	-800.76025390625	-1007.253784179688	1126.046020507812	-822.705810546875	-1063.3095703125	1112.982666015625	-756.0569458007812	-922.5205688476562	883.96728515625	-790.2406005859375	-999.5125122070312	872.6444091796875	-839.8860473632812	-1001.254943847656	1015.66015625	-839.755859375	-928.1858520507812	697.6177978515625	-775.1312866210938	-984.3143920898438	801.4788208007812	-837.5377807617188	-915.2110595703125	805.8392333984375	-813.0493774414062	-1037.512084960938	1479.188354492188	-364.2731323242188	-1072.2421875	1413.721435546875	-302.4380798339844	-1128.67138671875	1130.52197265625	-257.1551818847656	-1107.853515625	1121.844482421875	-352.6726379394531	-997.9026489257812	898.157958984375	-243.4897003173828	-1080.589111328125	883.53662109375	-215.3344421386719	-1112.636352539062	1056.291870117188	-233.22607421875	-986.7528076171875	706.8042602539062	-267.1064147949219	-977.7761840820312	802.9122314453125	-232.1131286621094	-1055.683715820312	800.1582641601562	-212.1942749023438	-1027.122680664062	1661.27392578125	-469.0777282714844	-829.2230834960938	1708.099975585938	-543.1350708007812	-865.6122436523438	1698.619018554688	-419.1090393066406	-996.1416625976562	1679.278564453125	-601.9353637695312	-1027.956665039062	980.9998779296875	-710.4525146484375	-900.4466552734375	1025.629028320312	-397.1369934082031	-899.7882080078125	1011.321411132812	-654.949951171875	-1085.196533203125	490.10595703125	-715.3928833007812	-1051.251708984375	632.8407592773438	-723.1386108398438	-1447.919555664062	163.1554870605469	-698.7496337890625	-1257.769653320312	328.8394165039062	-723.2518920898438	-1303.682495117188	33.93464279174805	-692.2435302734375	-1324.12841796875	51.88612365722656	-643.5243530273438	-1393.397827148438	70.81571197509766	-742.7877197265625	-1465.373291015625	206.8419342041016	-627.1599731445312	-839.5925903320312	519.6051635742188	-390.1751708984375	-883.0917358398438	784.0175170898438	-339.0791015625	-866.716552734375	34.49751663208008	-417.4281921386719	-808.93505859375	400.7571105957031	-411.1604919433594	-643.847412109375	50.80797958374023	-425.9458312988281	-691.1824951171875	40.64031219482422	-475.0365295410156	-759.73779296875	39.94856643676758	-371.8195190429688	-906.6351318359375	32.47774887084961	-492.463623046875	-980.6366577148438	1005.022033691406	-343.3014526367188	nan	nan	nan	
214	2.13	-1123.4208984375	1045.727783203125	-467.4269104003906	-1116.531494140625	1047.911743164062	-592.03173828125	-1117.96435546875	1085.203857421875	-529.6757202148438	-845.7927856445312	1282.16455078125	-508.0707702636719	-1142.860595703125	1241.89794921875	-546.9761962890625	-1063.5361328125	1508.4013671875	-547.9755859375	-868.66357421875	1396.697631835938	-517.2122802734375	-1151.443969726562	1334.14013671875	-451.8473205566406	-1056.041748046875	1486.855224609375	-649.2977294921875	-967.6199340820312	1471.796752929688	-715.6522827148438	-995.8084106445312	1344.02734375	-796.838623046875	-997.168701171875	1126.98828125	-818.6434326171875	-1053.162841796875	1113.746948242188	-752.0404663085938	-910.9201049804688	885.5191040039062	-785.489013671875	-987.794677734375	873.5924682617188	-835.29296875	-990.46142578125	1016.579467773438	-835.4637451171875	-915.5258178710938	699.0864868164062	-770.1480712890625	-972.1317749023438	802.5216064453125	-832.7941284179688	-903.1033935546875	807.4042358398438	-808.178466796875	-1029.047241210938	1480.51953125	-360.7283935546875	-1063.677001953125	1415.012451171875	-298.8331604003906	-1119.121704101562	1131.548706054688	-252.673828125	-1098.664672851562	1122.939086914062	-348.2456665039062	-984.78955078125	901.1072387695312	-239.82080078125	-1067.109008789062	885.0556640625	-211.257080078125	-1101.97998046875	1057.342163085938	-228.8075561523438	-970.6084594726562	709.9817504882812	-263.5439758300781	-962.9608154296875	806.2859497070312	-228.4936828613281	-1040.71826171875	802.1331787109375	-208.2113037109375	-1019.056091308594	1662.48876953125	-465.6852416992188	-821.146240234375	1709.863159179688	-539.3256225585938	-857.7413940429688	1700.301391601562	-415.36865234375	-987.839111328125	1680.560180664062	-598.487060546875	-1018.543212890625	981.585693359375	-706.72509765625	-891.1640014648438	1026.726440429688	-393.2434997558594	-890.6524047851562	1012.649230957031	-651.101318359375	-1066.788330078125	488.8563537597656	-715.22607421875	-1035.442993164062	632.240966796875	-721.8737182617188	-1437.510986328125	172.3621978759766	-696.55859375	-1242.973388671875	331.5033569335938	-722.6437377929688	-1299.75537109375	32.57048034667969	-692.9434814453125	-1318.490356445312	54.64405822753906	-643.982177734375	-1388.10009765625	77.74018096923828	-741.4093017578125	-1452.490234375	216.2393035888672	-624.9480590820312	-834.2047729492188	519.3501586914062	-388.8427734375	-875.0396118164062	784.1158447265625	-336.5919189453125	-866.4442138671875	34.69372177124023	-417.4539184570312	-804.7860717773438	400.2251892089844	-410.3973693847656	-643.014404296875	49.24175643920898	-426.5550231933594	-690.8177490234375	39.98438262939453	-475.6197204589844	-759.21826171875	40.0357666015625	-372.0780944824219	-906.5925903320312	32.64445495605469	-492.4043273925781	-971.48779296875	1006.005126953125	-339.6058654785156	nan	nan	nan	
215	2.14	-1114.459106445312	1046.772827148438	-464.012939453125	-1107.5849609375	1048.662475585938	-588.5916137695312	-1108.975830078125	1086.185668945312	-526.1889038085938	-837.0562744140625	1283.451171875	-504.2786865234375	-1134.04931640625	1242.954711914062	-543.4382934570312	-1054.954711914062	1509.531982421875	-544.5578002929688	-860.024658203125	1397.936645507812	-513.47998046875	-1142.755615234375	1335.189086914062	-448.3565063476562	-1047.316040039062	1487.899780273438	-645.8754272460938	-958.7506713867188	1472.8310546875	-712.1076049804688	-986.5146484375	1344.788940429688	-792.9595336914062	-987.0880126953125	1127.774658203125	-814.622314453125	-1043.017211914062	1114.326171875	-748.0702514648438	-899.166259765625	886.9904174804688	-780.7359008789062	-975.9164428710938	874.4085083007812	-830.6952514648438	-979.5944213867188	1017.349243164062	-831.1946411132812	-902.5814819335938	700.4785766601562	-765.21240234375	-959.7401733398438	803.4488525390625	-828.0535278320312	-890.7709350585938	808.92919921875	-803.3298950195312	-1020.596069335938	1481.770263671875	-357.2267150878906	-1055.100952148438	1416.218383789062	-295.2444152832031	-1109.537963867188	1132.499633789062	-248.1555328369141	-1089.506958007812	1123.931518554688	-343.797119140625	-971.679931640625	904.0404052734375	-236.1198577880859	-1053.619140625	886.5746459960938	-207.1268920898438	-1091.296875	1058.341064453125	-224.3581390380859	-954.4180908203125	713.18896484375	-259.876708984375	-948.161376953125	809.68701171875	-224.8125762939453	-1025.74267578125	804.1416625976562	-204.1513519287109	-1011.054809570312	1663.577270507812	-462.3524169921875	-813.1270751953125	1711.528564453125	-535.5489501953125	-849.9652709960938	1701.874633789062	-411.6731262207031	-979.59033203125	1681.73193359375	-595.098388671875	-1009.332214355469	981.99072265625	-703.09375	-882.1513671875	1027.75341796875	-389.4354248046875	-881.728759765625	1013.837158203125	-647.3619384765625	-1047.779296875	487.5446472167969	-714.7820434570312	-1019.300720214844	631.5326538085938	-720.48828125	-1426.059692382812	181.7875518798828	-694.1923828125	-1227.30029296875	334.0934448242188	-721.7918090820312	-1294.756713867188	31.34279823303223	-693.51806640625	-1311.731079101562	57.90861511230469	-644.2879028320312	-1381.571533203125	85.32755279541016	-739.8878173828125	-1438.7763671875	225.5744323730469	-622.5625	-829.1143188476562	519.086181640625	-387.4303283691406	-867.2881469726562	784.2189331054688	-334.1753845214844	-866.2471923828125	34.82177734375	-417.4505920410156	-800.927978515625	399.6937255859375	-409.5124816894531	-642.3710327148438	47.89677047729492	-427.0265808105469	-690.5317993164062	39.49125671386719	-476.1130065917969	-758.798583984375	40.08264923095703	-372.26318359375	-906.611083984375	32.77522659301758	-492.2789611816406	-962.5888061523438	1006.959838867188	-336.0104370117188	nan	nan	nan	
216	2.15	-1105.716552734375	1047.764892578125	-460.7230834960938	-1098.838989257812	1049.3515625	-585.2684936523438	-1100.196655273438	1087.120971679688	-522.822509765625	-828.5269165039062	1284.578979492188	-500.6102294921875	-1125.419189453125	1243.992065429688	-539.9791259765625	-1046.462890625	1510.6162109375	-541.1951293945312	-851.5082397460938	1399.059326171875	-509.8447875976562	-1134.18212890625	1336.219482421875	-444.9082946777344	-1038.70361328125	1488.88427734375	-642.5143432617188	-950.01904296875	1473.768188476562	-708.6393432617188	-977.3341674804688	1345.4306640625	-789.1371459960938	-977.0270385742188	1128.439331054688	-810.6473999023438	-1032.891723632812	1114.7578125	-744.1476440429688	-887.2840576171875	888.417724609375	-775.9931030273438	-963.9005126953125	875.12353515625	-826.085693359375	-968.6808471679688	1018.002197265625	-826.949951171875	-889.3631591796875	701.84033203125	-760.3048706054688	-947.1588134765625	804.2957763671875	-823.3046264648438	-878.237060546875	810.4447021484375	-798.5089111328125	-1012.176025390625	1482.953491210938	-353.7811279296875	-1046.527954101562	1417.355834960938	-291.6842956542969	-1099.918701171875	1133.39013671875	-243.6236114501953	-1080.367553710938	1124.838745117188	-339.346923828125	-958.5953369140625	906.9566650390625	-232.3918762207031	-1040.148193359375	888.106201171875	-202.9573669433594	-1080.596801757812	1059.30517578125	-219.8979187011719	-938.2200927734375	716.4338989257812	-256.1131286621094	-933.423828125	813.107666015625	-221.0751495361328	-1010.806579589844	806.1878662109375	-200.0337066650391	-1003.115478515625	1664.558959960938	-459.0780639648438	-805.1533813476562	1713.089599609375	-531.8065795898438	-842.2764282226562	1703.33447265625	-408.0254516601562	-971.3922729492188	1682.80810546875	-591.7683715820312	-1000.32958984375	982.2593994140625	-699.5640869140625	-873.3987426757812	1028.724609375	-385.7374572753906	-873.0138549804688	1014.908142089844	-643.7513427734375	-1028.228271484375	486.2317810058594	-714.01318359375	-1002.901977539062	630.7969360351562	-718.9536743164062	-1413.488525390625	191.1689300537109	-691.7471313476562	-1210.741333007812	336.5496826171875	-720.6812744140625	-1288.44091796875	30.53278732299805	-693.775390625	-1303.613891601562	61.63689804077148	-644.2698364257812	-1373.4814453125	93.30458831787109	-738.2570190429688	-1424.266967773438	234.6312103271484	-620.088134765625	-824.3576049804688	518.798828125	-385.9243469238281	-859.8662719726562	784.3013305664062	-331.7914123535156	-866.114990234375	34.88570404052734	-417.4186096191406	-797.3756103515625	399.1608581542969	-408.5011291503906	-641.9061889648438	46.76604080200195	-427.3725280761719	-690.3168334960938	39.12881851196289	-476.5195007324219	-758.4745483398438	40.08465194702148	-372.3726806640625	-906.6777954101562	32.88253021240234	-492.0777282714844	-953.919921875	1007.892150878906	-332.5270080566406	nan	nan	nan	
